<?xml version="1.0" encoding="UTF-8" standalone="no"?>
<svg
   xmlns:dc="http://purl.org/dc/elements/1.1/"
   xmlns:cc="http://creativecommons.org/ns#"
   xmlns:rdf="http://www.w3.org/1999/02/22-rdf-syntax-ns#"
   xmlns:svg="http://www.w3.org/2000/svg"
   xmlns="http://www.w3.org/2000/svg"
   viewBox="0 0 1821.3333 1024"
   height="1024"
   width="1821.3333"
   xml:space="preserve"
   id="svg2"
   version="1.1"><metadata
     id="metadata8"><rdf:RDF><cc:Work
         rdf:about=""><dc:format>image/svg+xml</dc:format><dc:type
           rdf:resource="http://purl.org/dc/dcmitype/StillImage" /></cc:Work></rdf:RDF></metadata><defs
     id="defs6"><clipPath
       id="clipPath18"
       clipPathUnits="userSpaceOnUse"><path
         id="path16"
         d="M 0,768 H 1366 V 0 H 0 Z" /></clipPath></defs><g
     transform="matrix(1.3333333,0,0,-1.3333333,0,1024)"
     id="g10"><g
       id="g12"><g
         clip-path="url(#clipPath18)"
         id="g14"><g
           transform="translate(184.5854,468.9414)"
           id="g20"><path
             id="path22"
             style="fill:#0060a3;fill-opacity:1;fill-rule:nonzero;stroke:none"
             d="M 0,0 H 39.727 L 8.695,-46.401 39.727,-92.769 H 0 l -25.228,43.775 V -92.769 H -59.421 V 0 h 34.193 V -43.786 Z M 108.413,-18.577 H 79.716 v -18.539 h 54.483 c -3.455,-2.596 -5.494,-5.808 -5.494,-9.285 0,-3.479 2.039,-6.664 5.494,-9.238 H 79.716 v -18.599 h 28.697 c -3.488,-2.6 -5.222,-5.78 -5.222,-9.265 0,-3.476 1.734,-6.676 5.222,-9.266 H 52.165 45.794 V 0 h 62.619 c -3.488,-2.611 -5.222,-5.796 -5.222,-9.289 0,-3.494 1.734,-6.668 5.222,-9.288 m 123.211,-1.148 v -73.044 h -33.933 v 73.044 H 167.006 V 0 h 95.33 V -19.725 Z M 268.439,0 h 34.177 v -92.769 h -34.177 z" /></g><g
           transform="translate(343.1729,406.3208)"
           id="g24"><path
             id="path26"
             style="fill:#7accf2;fill-opacity:1;fill-rule:nonzero;stroke:none"
             d="m 0,0 c 16.228,0 29.541,7.238 29.541,16.219 0,8.988 -13.313,16.242 -29.541,16.242 -16.554,0 -29.883,-7.254 -29.883,-16.242 C -29.883,7.238 -16.554,0 0,0 m -25.844,37.097 c 16.261,0 29.582,7.242 29.582,16.235 0,8.975 -13.321,16.226 -29.582,16.226 -16.231,0 -29.552,-7.251 -29.552,-16.226 0,-8.993 13.321,-16.235 29.552,-16.235 m -25.78,37.111 c 16.515,0 29.879,7.233 29.879,16.233 0,8.995 -13.364,16.223 -29.879,16.223 -16.249,0 -29.561,-7.228 -29.561,-16.223 0,-9 13.312,-16.233 29.561,-16.233 m 25.78,-111.314 c 16.261,0 29.582,7.256 29.582,16.223 0,9.005 -13.321,16.257 -29.582,16.257 -16.231,0 -29.552,-7.252 -29.552,-16.257 0,-8.967 13.321,-16.223 29.552,-16.223 m -25.78,-37.132 c 16.515,0 29.879,7.273 29.879,16.244 0,9.005 -13.364,16.254 -29.879,16.254 -16.249,0 -29.561,-7.249 -29.561,-16.254 0,-8.971 13.312,-16.244 29.561,-16.244" /></g><g
           transform="translate(867.0918,306.707)"
           id="g28"><path
             id="path30"
             style="fill:#0060a3;fill-opacity:1;fill-rule:nonzero;stroke:none"
             d="M 0,0 H -1.779 C -2.719,0 -3.5,-0.535 -3.874,-1.336 -3.966,-1.605 -4.021,-1.904 -4.021,-2.213 v -38.875 c 0,-1.211 0.964,-2.173 2.242,-2.173 H 0 c 0.915,0 1.707,0.523 2.052,1.323 0.124,0.28 0.2,0.591 0.2,0.85 V -2.206 C 2.252,-0.981 1.254,0 0,0" /></g><g
           transform="translate(1007.0234,306.707)"
           id="g32"><path
             id="path34"
             style="fill:#0060a3;fill-opacity:1;fill-rule:nonzero;stroke:none"
             d="m 0,0 h -1.825 c -0.87,0 -1.671,-0.535 -2.029,-1.336 -0.112,-0.272 -0.17,-0.568 -0.17,-0.877 v -38.875 c 0,-1.211 0.97,-2.173 2.199,-2.173 H 0 c 0.89,0 1.69,0.523 2.068,1.323 0.108,0.28 0.161,0.555 0.161,0.85 V -2.206 C 2.229,-0.981 1.237,0 0,0" /></g><g
           transform="translate(690.3701,287.2988)"
           id="g36"><path
             id="path38"
             style="fill:#0060a3;fill-opacity:1;fill-rule:nonzero;stroke:none"
             d="m 0,0 c 0,2.145 1.888,3.877 4.143,3.877 h 7.297 c 2.331,0 4.206,-1.732 4.206,-3.877 V -3.942 H 0 Z M 11.44,9.977 H 4.143 C -1.583,9.977 -6.247,5.506 -6.247,0 v -13.899 c 0,-5.505 4.664,-10.006 10.39,-10.006 h 7.297 c 2.538,0 4.954,0.884 6.792,2.442 1.415,1.152 2.462,2.591 3.063,4.176 0.239,0.68 0.154,1.395 -0.227,1.974 -0.417,0.607 -1.087,0.955 -1.858,0.955 h -1.969 c -0.926,0 -1.74,-0.496 -1.964,-1.182 -0.741,-1.379 -2.225,-2.288 -3.837,-2.288 H 4.143 C 1.888,-17.828 0,-16.069 0,-13.899 v 3.893 h 18.731 c 1.776,0 3.162,1.347 3.162,3.063 V 0 c 0,5.506 -4.688,9.977 -10.453,9.977" /></g><g
           transform="translate(730.1338,291.1758)"
           id="g40"><path
             id="path42"
             style="fill:#0060a3;fill-opacity:1;fill-rule:nonzero;stroke:none"
             d="m 0,0 h 7.302 c 1.611,0 3.101,-0.827 3.748,-2.028 0.296,-0.877 1.123,-1.449 2.085,-1.449 h 1.927 c 0.745,0 1.458,0.369 1.865,1.005 0.393,0.575 0.472,1.32 0.225,1.91 -0.62,1.649 -1.657,3.116 -3.046,4.249 C 12.277,5.224 9.853,6.1 7.302,6.1 H 0 c -5.725,0 -10.399,-4.471 -10.399,-9.977 v -13.899 c 0,-5.505 4.674,-10.006 10.399,-10.006 h 7.302 c 2.534,0 4.924,0.884 6.795,2.442 1.398,1.153 2.435,2.591 3.046,4.176 0.256,0.68 0.177,1.395 -0.216,1.974 -0.407,0.607 -1.12,0.955 -1.865,0.955 h -1.99 c -0.909,0 -1.743,-0.509 -1.943,-1.182 -0.726,-1.379 -2.252,-2.288 -3.827,-2.288 H 0 c -2.284,0 -4.133,1.759 -4.133,3.929 V -3.877 C -4.133,-1.732 -2.284,0 0,0" /></g><g
           transform="translate(772.0488,297.2754)"
           id="g44"><path
             id="path46"
             style="fill:#0060a3;fill-opacity:1;fill-rule:nonzero;stroke:none"
             d="m 0,0 h -11.447 v 7.226 c 0,1.224 -0.989,2.206 -2.229,2.206 h -1.793 c -0.899,0 -1.707,-0.536 -2.057,-1.35 -0.125,-0.275 -0.181,-0.571 -0.181,-0.863 v -38.875 c 0,-1.211 0.997,-2.173 2.238,-2.173 h 1.793 c 0.905,0 1.703,0.522 2.055,1.323 0.118,0.279 0.174,0.555 0.174,0.85 V -6.1 H 0 c 2.314,0 4.188,-1.732 4.188,-3.877 v -21.735 c 0,-1.221 0.965,-2.17 2.226,-2.17 h 1.799 c 1.244,0 2.229,0.949 2.229,2.17 V -9.977 C 10.442,-4.471 5.761,0 0,0" /></g><g
           transform="translate(808.3564,297.3047)"
           id="g48"><path
             id="path50"
             style="fill:#0060a3;fill-opacity:1;fill-rule:nonzero;stroke:none"
             d="m 0,0 h -15.472 c -1.241,0 -2.222,-0.938 -2.222,-2.173 v -29.513 c 0,-1.21 0.981,-2.172 2.222,-2.172 h 1.796 c 1.274,0 2.219,0.962 2.219,2.172 V -6.06 H 0 c 2.347,0 4.208,-1.723 4.208,-3.946 v -21.68 c 0,-1.21 0.969,-2.172 2.203,-2.172 h 1.816 c 1.217,0 2.215,0.962 2.215,2.172 v 21.68 C 10.442,-4.471 5.765,0 0,0" /></g><g
           transform="translate(832.708,287.2988)"
           id="g52"><path
             id="path54"
             style="fill:#0060a3;fill-opacity:1;fill-rule:nonzero;stroke:none"
             d="m 0,0 c 0,2.145 1.848,3.877 4.123,3.877 h 7.308 c 2.288,0 4.191,-1.732 4.191,-3.877 v -13.899 c 0,-2.114 -1.903,-3.861 -4.191,-3.861 H 4.123 C 1.848,-17.76 0,-16.013 0,-13.899 Z M 11.431,9.977 H 4.123 C -1.593,9.977 -6.264,5.506 -6.264,0 v -13.899 c 0,-5.493 4.671,-9.954 10.387,-9.954 h 7.308 c 5.751,0 10.449,4.461 10.449,9.954 L 21.88,0 c 0,5.506 -4.698,9.977 -10.449,9.977" /></g><g
           transform="translate(883.9912,287.2988)"
           id="g56"><path
             id="path58"
             style="fill:#0060a3;fill-opacity:1;fill-rule:nonzero;stroke:none"
             d="m 0,0 c 0,2.145 1.829,3.877 4.091,3.877 h 7.327 c 2.304,0 4.179,-1.732 4.179,-3.877 v -13.899 c 0,-2.114 -1.875,-3.861 -4.179,-3.861 H 4.091 C 1.829,-17.76 0,-16.013 0,-13.899 Z M 11.418,9.977 H 4.091 C -1.618,9.977 -6.296,5.506 -6.296,0 v -13.899 c 0,-5.493 4.678,-9.954 10.387,-9.954 h 7.327 c 5.751,0 10.426,4.461 10.426,9.954 V 0 c 0,5.506 -4.675,9.977 -10.426,9.977" /></g><g
           transform="translate(975.5479,297.2754)"
           id="g60"><path
             id="path62"
             style="fill:#0060a3;fill-opacity:1;fill-rule:nonzero;stroke:none"
             d="m 0,0 h -1.261 c -1.283,0 -2.442,-0.762 -2.961,-1.95 l -8.85,-23.029 -8.897,23.082 C -22.447,-0.769 -23.606,0 -24.89,0 h -1.273 c -0.727,0 -1.439,-0.364 -1.846,-0.981 -0.413,-0.572 -0.509,-1.288 -0.242,-1.977 l 11.814,-30.667 -2.554,-6.645 c -0.269,-0.682 -0.155,-1.438 0.25,-2.039 0.39,-0.59 1.066,-0.952 1.802,-0.952 h 1.303 c 1.283,0 2.44,0.769 2.971,1.993 L 2.098,-2.938 C 2.363,-2.259 2.269,-1.546 1.842,-0.965 1.457,-0.364 0.769,0 0,0" /></g><g
           transform="translate(1036.0264,297.3047)"
           id="g64"><path
             id="path66"
             style="fill:#0060a3;fill-opacity:1;fill-rule:nonzero;stroke:none"
             d="m 0,0 h -15.419 c -1.247,0 -2.242,-0.938 -2.242,-2.173 v -29.513 c 0,-1.21 0.995,-2.172 2.242,-2.172 h 1.786 c 1.25,0 2.202,0.962 2.202,2.172 V -6.06 H 0 c 2.36,0 4.195,-1.723 4.195,-3.946 v -21.68 c 0,-1.21 0.982,-2.172 2.223,-2.172 h 1.828 c 1.241,0 2.223,0.962 2.223,2.172 v 21.68 C 10.469,-4.471 5.774,0 0,0" /></g><g
           transform="translate(1179.3555,297.3047)"
           id="g68"><path
             id="path70"
             style="fill:#0060a3;fill-opacity:1;fill-rule:nonzero;stroke:none"
             d="M 0,0 H -1.799 C -3.05,0 -4.047,-0.938 -4.047,-2.173 v -25.593 h -11.405 c -2.366,0 -4.228,1.714 -4.228,3.923 v 21.67 c 0,1.235 -0.942,2.173 -2.189,2.173 h -1.793 c -1.247,0 -2.242,-0.938 -2.242,-2.173 v -21.67 c 0,-5.538 4.701,-10.015 10.452,-10.015 H 0 c 1.229,0 2.232,0.962 2.232,2.172 V -2.173 C 2.232,-0.938 1.229,0 0,0" /></g><g
           transform="translate(1223.0957,291.1758)"
           id="g72"><path
             id="path74"
             style="fill:#0060a3;fill-opacity:1;fill-rule:nonzero;stroke:none"
             d="m 0,0 h 7.277 c 2.322,0 4.206,-1.732 4.206,-3.877 V -7.819 H -4.149 v 3.942 C -4.149,-1.732 -2.292,0 0,0 m 14.572,-13.883 c 1.76,0 3.168,1.347 3.168,3.063 v 6.943 C 17.74,1.629 13.045,6.1 7.277,6.1 H 0 c -5.723,0 -10.41,-4.471 -10.41,-9.977 v -13.899 c 0,-5.505 4.687,-10.006 10.41,-10.006 h 7.277 c 2.551,0 4.945,0.884 6.792,2.442 1.396,1.153 2.443,2.57 3.067,4.176 0.243,0.68 0.151,1.395 -0.24,1.974 -0.41,0.607 -1.116,0.955 -1.868,0.955 h -1.95 c -0.938,0 -1.765,-0.496 -1.97,-1.182 -0.728,-1.379 -2.232,-2.288 -3.831,-2.288 H 0 c -2.292,0 -4.149,1.759 -4.149,3.929 v 3.893 z" /></g><g
           transform="translate(1104.6172,269.3818)"
           id="g76"><path
             id="path78"
             style="fill:#0060a3;fill-opacity:1;fill-rule:nonzero;stroke:none"
             d="M 0,0 C -0.266,0.102 -0.545,0.174 -0.838,0.174 L -6.237,0.157 c -2.283,0 -4.15,1.747 -4.15,3.861 v 17.759 h 8.998 c 1.189,0 2.12,0.959 2.12,2.197 v 1.747 c 0,0.883 -0.505,1.667 -1.29,2.005 -0.258,0.119 -0.554,0.174 -0.843,0.174 h -8.985 v 3.923 c 0,1.182 -1.011,2.183 -2.225,2.183 h -1.803 c -1.205,0 -2.232,-1.001 -2.232,-2.183 V 4.018 c 0,-5.493 4.674,-9.954 10.41,-9.954 h 5.42 c 1.181,0 2.123,0.946 2.123,2.173 v 1.735 C 1.306,-1.123 0.808,-0.345 0,0" /></g><g
           transform="translate(1145.6719,269.3818)"
           id="g80"><path
             id="path82"
             style="fill:#0060a3;fill-opacity:1;fill-rule:nonzero;stroke:none"
             d="M 0,0 C -0.257,0.102 -0.552,0.174 -0.851,0.174 L -6.277,0.157 c -2.269,0 -4.114,1.747 -4.114,3.861 v 17.759 h 8.986 c 1.201,0 2.123,0.959 2.123,2.197 v 1.747 c 0,0.883 -0.495,1.667 -1.283,2.005 -0.256,0.119 -0.555,0.174 -0.84,0.174 h -8.986 v 3.923 c 0,1.182 -1.03,2.183 -2.245,2.183 h -1.8 c -1.208,0 -2.221,-1.001 -2.221,-2.183 V 4.018 c 0,-5.493 4.665,-9.954 10.38,-9.954 h 5.456 c 1.165,0 2.094,0.946 2.094,2.173 v 1.735 C 1.273,-1.123 0.787,-0.345 0,0" /></g><g
           transform="translate(1206.1494,269.3818)"
           id="g84"><path
             id="path86"
             style="fill:#0060a3;fill-opacity:1;fill-rule:nonzero;stroke:none"
             d="M 0,0 C -0.289,0.102 -0.558,0.174 -0.856,0.174 L -6.26,0.157 c -2.301,0 -4.153,1.747 -4.153,3.861 v 17.759 h 9.012 c 1.178,0 2.114,0.959 2.114,2.197 v 1.747 c 0,0.883 -0.492,1.667 -1.297,2.005 -0.272,0.119 -0.552,0.174 -0.844,0.174 h -8.985 v 3.923 c 0,1.182 -1.017,2.183 -2.219,2.183 h -1.808 c -1.203,0 -2.223,-1.001 -2.223,-2.183 V 4.018 c 0,-5.493 4.655,-9.954 10.403,-9.954 h 5.404 c 1.208,0 2.157,0.946 2.157,2.173 v 1.735 C 1.301,-1.123 0.775,-0.345 0,0" /></g><g
           transform="translate(1117.8633,306.707)"
           id="g88"><path
             id="path90"
             style="fill:#0060a3;fill-opacity:1;fill-rule:nonzero;stroke:none"
             d="m 0,0 h -1.789 c -0.897,0 -1.724,-0.535 -2.059,-1.336 -0.098,-0.286 -0.173,-0.568 -0.173,-0.877 v -5.439 c 0,-1.218 0.971,-2.177 2.221,-2.177 H 0 c 0.905,0 1.727,0.509 2.055,1.304 0.14,0.255 0.19,0.561 0.19,0.873 v 5.446 C 2.245,-0.981 1.26,0 0,0" /></g><g
           transform="translate(1117.8633,292.9131)"
           id="g92"><path
             id="path94"
             style="fill:#0060a3;fill-opacity:1;fill-rule:nonzero;stroke:none"
             d="M 0,0 H -1.789 C -2.686,0 -3.507,-0.522 -3.848,-1.34 -3.946,-1.6 -4.021,-1.892 -4.021,-2.187 v -25.107 c 0,-1.211 0.971,-2.173 2.221,-2.173 H 0 c 0.905,0 1.727,0.523 2.055,1.307 0.14,0.276 0.19,0.571 0.19,0.866 V -2.187 C 2.245,-0.969 1.26,0 0,0" /></g><g
           transform="translate(681.9331,306.5166)"
           id="g96"><path
             id="path98"
             style="fill:#0060a3;fill-opacity:1;fill-rule:nonzero;stroke:none"
             d="m 0,0 c -0.286,0.111 -0.551,0.19 -0.919,0.19 h -28.898 c -0.28,0 -0.568,-0.079 -0.837,-0.19 -0.779,-0.332 -1.301,-1.116 -1.301,-2.016 v -1.743 c 0,-1.205 0.962,-2.177 2.138,-2.177 h 11.355 v -34.961 c 0,-1.195 0.984,-2.173 2.17,-2.173 h 1.861 c 1.215,0 2.242,0.995 2.242,2.173 V -5.936 H -0.84 c 1.228,0 2.147,0.972 2.147,2.177 v 1.743 C 1.307,-1.116 0.801,-0.332 0,0" /></g><g
           transform="translate(919.3857,287.2988)"
           id="g100"><path
             id="path102"
             style="fill:#0060a3;fill-opacity:1;fill-rule:nonzero;stroke:none"
             d="M 0,0 C 0,2.145 1.865,3.877 4.13,3.877 H 15.633 V -15.73 H 4.13 C 1.865,-15.73 0,-13.975 0,-11.798 Z M 19.638,9.977 H 4.13 C -1.585,9.977 -6.25,5.506 -6.25,0 v -11.798 c 0,-5.512 4.665,-10.015 10.38,-10.015 h 11.503 v -1.455 c 0,-2.128 -1.888,-3.887 -4.162,-3.914 h -11.52 c -0.335,0 -0.617,-0.032 -0.85,-0.143 -0.801,-0.335 -1.293,-1.147 -1.293,-2.017 v -1.762 c 0,-1.228 0.935,-2.18 2.143,-2.18 h 11.48 c 5.771,0 10.472,4.498 10.472,10.016 V 7.787 c 0,1.208 -1.01,2.19 -2.265,2.19" /></g><g
           transform="translate(1070.7881,283.3564)"
           id="g104"><path
             id="path106"
             style="fill:#0060a3;fill-opacity:1;fill-rule:nonzero;stroke:none"
             d="m 0,0 h -7.009 c -1.024,0 -2.071,0.414 -2.902,1.133 -0.818,0.682 -1.304,1.618 -1.353,2.587 -0.055,1.076 0.368,2.1 1.14,2.882 0.751,0.774 1.845,1.217 3.007,1.217 H 5.492 c 1.168,0 2.134,0.943 2.134,2.17 v 1.757 c 0,0.883 -0.532,1.654 -1.311,1.992 -0.265,0.112 -0.56,0.181 -0.823,0.181 H -6.9 c -2.817,0 -5.594,-1.109 -7.63,-3.04 -2.002,-1.989 -3.049,-4.458 -3.01,-7.133 0.108,-2.659 1.218,-5.128 3.154,-6.943 2.03,-1.855 4.603,-2.866 7.269,-2.866 h 7.242 c 1.057,0 2.094,-0.387 2.892,-1.06 0.837,-0.706 1.316,-1.619 1.355,-2.598 0.04,-1.09 -0.348,-2.107 -1.126,-2.894 -0.791,-0.785 -1.868,-1.202 -3.069,-1.202 l -14.198,0.009 c -1.192,0 -2.13,-0.964 -2.13,-2.175 v -1.754 c 0,-0.886 0.511,-1.674 1.306,-1.99 0.263,-0.118 0.538,-0.183 0.834,-0.183 H 0.177 c 2.724,0 5.338,0.995 7.334,2.847 1.93,1.847 3.062,4.32 3.119,6.896 0.058,2.676 -0.969,5.164 -2.991,7.18 C 5.62,-1.08 2.836,0 0,0" /></g><g
           transform="translate(167.6338,287.293)"
           id="g108"><path
             id="path110"
             style="fill:#0060a3;fill-opacity:1;fill-rule:nonzero;stroke:none"
             d="m 0,0 c 0,2.134 1.884,3.88 4.169,3.88 h 7.288 c 2.298,0 4.189,-1.746 4.189,-3.88 v -13.884 c 0,-2.146 -1.891,-3.889 -4.189,-3.889 H 4.169 C 1.884,-17.773 0,-16.03 0,-13.884 Z M 11.457,9.969 H 4.169 C -1.573,9.969 -6.241,5.498 -6.241,0 v -13.884 c 0,-5.502 4.668,-9.963 10.41,-9.963 h 7.288 c 5.754,0 10.446,4.461 10.446,9.963 V 0 c 0,5.498 -4.692,9.969 -10.446,9.969" /></g><g
           transform="translate(227.3999,287.293)"
           id="g112"><path
             id="path114"
             style="fill:#0060a3;fill-opacity:1;fill-rule:nonzero;stroke:none"
             d="m 0,0 c 0,2.134 1.832,3.88 4.113,3.88 h 7.298 c 2.318,0 4.222,-1.746 4.222,-3.88 V -3.927 H 0 Z M 11.411,9.969 H 4.113 C -1.619,9.969 -6.26,5.498 -6.26,0 v -13.884 c 0,-5.537 4.641,-10.021 10.373,-10.021 h 7.298 c 2.554,0 4.95,0.863 6.792,2.442 1.415,1.126 2.478,2.6 3.069,4.182 0.244,0.67 0.151,1.395 -0.216,1.973 -0.417,0.601 -1.117,0.961 -1.891,0.961 h -1.944 c -0.942,0 -1.739,-0.511 -1.976,-1.194 -0.722,-1.392 -2.232,-2.278 -3.834,-2.278 H 4.113 C 1.832,-17.819 0,-16.063 0,-13.884 v 3.864 h 18.725 c 1.77,0 3.145,1.346 3.145,3.077 V 0 c 0,5.498 -4.671,9.969 -10.459,9.969" /></g><g
           transform="translate(354.9326,306.6836)"
           id="g116"><path
             id="path118"
             style="fill:#0060a3;fill-opacity:1;fill-rule:nonzero;stroke:none"
             d="m 0,0 h -1.815 c -0.9,0 -1.701,-0.525 -2.062,-1.322 -0.115,-0.277 -0.171,-0.569 -0.171,-0.874 v -38.858 c 0,-1.238 0.988,-2.183 2.233,-2.183 H 0 c 0.876,0 1.677,0.508 2.035,1.319 0.115,0.276 0.161,0.559 0.161,0.864 V -2.189 C 2.196,-0.968 1.237,0 0,0" /></g><g
           transform="translate(372.0327,287.293)"
           id="g120"><path
             id="path122"
             style="fill:#0060a3;fill-opacity:1;fill-rule:nonzero;stroke:none"
             d="m 0,0 c 0,2.134 1.871,3.88 4.146,3.88 h 7.304 c 2.298,0 4.179,-1.746 4.179,-3.88 V -3.927 H 0 Z M 11.45,9.969 H 4.146 C -1.615,9.969 -6.264,5.498 -6.264,0 v -13.884 c 0,-5.537 4.649,-10.021 10.41,-10.021 h 7.304 c 2.515,0 4.925,0.863 6.786,2.442 1.389,1.126 2.445,2.587 3.053,4.182 0.249,0.67 0.173,1.391 -0.24,1.989 -0.42,0.585 -1.116,0.945 -1.858,0.945 h -1.97 c -0.926,0 -1.737,-0.511 -1.97,-1.194 -0.715,-1.392 -2.225,-2.278 -3.801,-2.278 H 4.146 C 1.871,-17.819 0,-16.063 0,-13.884 v 3.864 h 18.731 c 1.766,0 3.158,1.346 3.158,3.077 V 0 c 0,5.498 -4.701,9.969 -10.439,9.969" /></g><g
           transform="translate(411.6094,291.1729)"
           id="g124"><path
             id="path126"
             style="fill:#0060a3;fill-opacity:1;fill-rule:nonzero;stroke:none"
             d="m 0,0 h 7.271 c 1.616,0 3.103,-0.834 3.753,-2.055 0.286,-0.847 1.143,-1.424 2.104,-1.424 h 1.914 c 0.752,0 1.451,0.379 1.861,1.003 0.391,0.576 0.47,1.321 0.23,1.905 C 16.549,1.076 15.485,2.547 14.097,3.67 12.255,5.239 9.845,6.089 7.271,6.089 H 0 c -5.748,0 -10.429,-4.471 -10.429,-9.969 v -13.884 c 0,-5.537 4.681,-10.021 10.429,-10.021 h 7.271 c 2.538,0 4.944,0.863 6.796,2.442 1.395,1.126 2.458,2.587 3.066,4.182 0.24,0.689 0.161,1.405 -0.243,1.974 -0.397,0.6 -1.106,0.96 -1.848,0.96 h -1.97 c -0.922,0 -1.762,-0.511 -1.983,-1.194 -0.715,-1.391 -2.202,-2.278 -3.818,-2.278 H 0 c -2.301,0 -4.143,1.756 -4.143,3.935 V -3.88 C -4.143,-1.746 -2.301,0 0,0" /></g><g
           transform="translate(490.3667,287.293)"
           id="g128"><path
             id="path130"
             style="fill:#0060a3;fill-opacity:1;fill-rule:nonzero;stroke:none"
             d="m 0,0 c 0,2.134 1.848,3.88 4.12,3.88 h 7.294 c 2.324,0 4.202,-1.746 4.202,-3.88 v -13.884 c 0,-2.146 -1.878,-3.889 -4.202,-3.889 H 4.12 C 1.848,-17.773 0,-16.03 0,-13.884 Z M 11.414,9.969 H 4.12 C -1.605,9.969 -6.28,5.498 -6.28,0 v -13.884 c 0,-5.502 4.675,-9.963 10.4,-9.963 h 7.294 c 5.781,0 10.453,4.461 10.453,9.963 V 0 c 0,5.498 -4.672,9.969 -10.453,9.969" /></g><g
           transform="translate(537.1494,297.3115)"
           id="g132"><path
             id="path134"
             style="fill:#0060a3;fill-opacity:1;fill-rule:nonzero;stroke:none"
             d="m 0,0 h -15.442 c -1.254,0 -2.229,-0.965 -2.229,-2.189 v -29.493 c 0,-1.238 0.975,-2.183 2.229,-2.183 h 1.796 c 1.26,0 2.215,0.945 2.215,2.183 V -6.096 H 0 c 2.351,0 4.186,-1.711 4.186,-3.923 v -21.663 c 0,-1.238 1.001,-2.183 2.242,-2.183 H 8.24 c 1.234,0 2.199,0.945 2.199,2.183 v 21.663 C 10.439,-4.487 5.761,0 0,0" /></g><g
           transform="translate(580.853,291.1729)"
           id="g136"><path
             id="path138"
             style="fill:#0060a3;fill-opacity:1;fill-rule:nonzero;stroke:none"
             d="m 0,0 h 7.285 c 1.628,0 3.102,-0.834 3.775,-2.042 0.292,-0.86 1.132,-1.437 2.087,-1.437 h 1.915 c 0.771,0 1.467,0.379 1.867,0.994 0.394,0.585 0.476,1.326 0.234,1.914 C 16.562,1.076 15.518,2.547 14.086,3.67 12.301,5.239 9.872,6.089 7.285,6.089 H 0 c -5.722,0 -10.393,-4.471 -10.393,-9.969 v -13.884 c 0,-5.537 4.671,-10.021 10.393,-10.021 h 7.285 c 2.528,0 4.966,0.863 6.801,2.442 1.399,1.126 2.443,2.587 3.077,4.198 0.242,0.673 0.16,1.389 -0.234,1.958 -0.416,0.6 -1.116,0.96 -1.867,0.96 h -1.967 c -0.939,0 -1.743,-0.511 -1.976,-1.194 -0.709,-1.391 -2.206,-2.278 -3.834,-2.278 H 0 c -2.271,0 -4.126,1.756 -4.126,3.935 V -3.88 C -4.126,-1.746 -2.271,0 0,0" /></g><g
           transform="translate(142.7173,285.917)"
           id="g140"><path
             id="path142"
             style="fill:#0060a3;fill-opacity:1;fill-rule:nonzero;stroke:none"
             d="m 0,0 12.777,17.284 c 0.512,0.67 0.597,1.503 0.236,2.258 -0.374,0.746 -1.129,1.225 -2.022,1.225 h -1.74 c -0.969,0 -1.937,-0.479 -2.544,-1.247 L -5.167,3.45 C -5.501,2.968 -6.112,2.692 -6.779,2.692 h -4.5 v 15.885 c 0,1.222 -0.985,2.19 -2.242,2.19 h -1.764 c -0.932,0 -1.739,-0.526 -2.081,-1.323 -0.118,-0.276 -0.187,-0.568 -0.187,-0.874 v -38.857 c 0,-1.238 1.001,-2.184 2.268,-2.184 h 1.764 c 0.916,0 1.729,0.509 2.054,1.32 0.135,0.276 0.188,0.558 0.188,0.864 v 16.89 h 5.016 c 0.659,0 1.293,-0.306 1.641,-0.801 L 8.063,-21.263 c 0.61,-0.777 1.5,-1.208 2.481,-1.208 h 1.786 c 0.834,0 1.583,0.431 1.947,1.143 0.384,0.725 0.345,1.582 -0.161,2.31 z" /></g><g
           transform="translate(215.0337,297.1016)"
           id="g144"><path
             id="path146"
             style="fill:#0060a3;fill-opacity:1;fill-rule:nonzero;stroke:none"
             d="m 0,0 c -0.286,0.111 -0.555,0.174 -0.922,0.174 h -6.274 c -5.735,0 -10.39,-4.471 -10.39,-9.977 v -21.709 c 0,-1.177 0.985,-2.124 2.226,-2.124 h 1.773 c 1.257,0 2.248,0.947 2.248,2.124 v 21.709 c 0,2.042 1.707,3.737 3.831,3.861 h 6.657 c 1.212,0 2.171,0.959 2.171,2.183 v 1.746 C 1.32,-1.126 0.785,-0.338 0,0" /></g><g
           transform="translate(478.2827,297.1016)"
           id="g148"><path
             id="path150"
             style="fill:#0060a3;fill-opacity:1;fill-rule:nonzero;stroke:none"
             d="m 0,0 c -0.295,0.111 -0.558,0.174 -0.938,0.174 h -6.284 c -5.718,0 -10.393,-4.471 -10.393,-9.977 v -21.709 c 0,-1.177 1.021,-2.124 2.255,-2.124 h 1.769 c 1.241,0 2.239,0.947 2.239,2.124 v 21.709 c 0,2.042 1.717,3.737 3.848,3.861 h 6.65 c 1.202,0 2.151,0.959 2.151,2.183 v 1.746 C 1.297,-1.126 0.781,-0.338 0,0" /></g><g
           transform="translate(261.5342,274.7725)"
           id="g152"><path
             id="path154"
             style="fill:#0060a3;fill-opacity:1;fill-rule:nonzero;stroke:none"
             d="M 0,0 C 0,2.144 1.868,3.883 4.133,3.883 H 15.639 V -5.299 H 4.133 C 1.868,-5.299 0,-3.543 0,-1.363 Z M 11.431,22.489 H -0.443 c -0.273,0 -0.561,-0.049 -0.844,-0.16 -0.795,-0.338 -1.274,-1.126 -1.274,-2.013 V 18.57 c 0,-1.224 0.916,-2.17 2.118,-2.17 h 11.874 c 2.33,0 4.208,-1.746 4.208,-3.879 V 9.982 H 4.133 C -1.572,9.982 -6.237,5.491 -6.237,0 v -1.363 c 0,-5.537 4.665,-10.022 10.37,-10.022 h 14.612 c 1.776,0 3.151,1.356 3.151,3.07 v 20.836 c 0,5.498 -4.688,9.968 -10.465,9.968" /></g><g
           transform="translate(340.9185,306.5068)"
           id="g156"><path
             id="path158"
             style="fill:#0060a3;fill-opacity:1;fill-rule:nonzero;stroke:none"
             d="m 0,0 c -0.256,0.124 -0.539,0.177 -0.926,0.177 h -24.26 c -1.684,0 -3.079,-1.382 -3.079,-3.076 V -40.05 c 0,-1.641 1.304,-2.941 2.991,-3.011 h 0.088 24.362 c 1.208,0 2.157,0.946 2.157,2.173 v 1.757 c 0,0.873 -0.516,1.661 -1.333,2.012 -0.256,0.112 -0.539,0.168 -0.824,0.168 h -21.197 v 13.308 h 16.847 c 1.228,0 2.167,0.972 2.167,2.183 v 1.747 c 0,0.889 -0.513,1.684 -1.307,2.019 -0.269,0.108 -0.567,0.171 -0.86,0.171 h -16.847 v 11.594 h 21.197 c 1.208,0 2.157,0.962 2.157,2.173 v 1.743 C 1.333,-1.126 0.817,-0.335 0,0" /></g><g
           transform="translate(452.6309,269.3779)"
           id="g160"><path
             id="path162"
             style="fill:#0060a3;fill-opacity:1;fill-rule:nonzero;stroke:none"
             d="M 0,0 C -0.269,0.096 -0.561,0.161 -0.843,0.161 L -6.276,0.142 c -2.272,0 -4.11,1.743 -4.11,3.889 v 17.75 h 8.965 c 1.208,0 2.15,0.959 2.15,2.184 v 1.746 c 0,0.887 -0.512,1.675 -1.306,2.013 -0.266,0.111 -0.545,0.173 -0.844,0.173 h -8.965 v 3.907 c 0,1.188 -1.034,2.189 -2.256,2.189 h -1.796 c -1.214,0 -2.225,-1.001 -2.225,-2.189 V 4.031 c 0,-5.502 4.662,-9.979 10.387,-9.979 h 5.433 c 1.195,0 2.127,0.962 2.127,2.189 v 1.731 C 1.284,-1.148 0.775,-0.341 0,0" /></g><g
           transform="translate(560.0996,306.6836)"
           id="g164"><path
             id="path166"
             style="fill:#0060a3;fill-opacity:1;fill-rule:nonzero;stroke:none"
             d="m 0,0 h -1.779 c -0.909,0 -1.74,-0.525 -2.078,-1.322 -0.109,-0.267 -0.158,-0.552 -0.158,-0.874 v -5.443 c 0,-1.211 0.972,-2.176 2.236,-2.176 h 1.766 c 0.932,0 1.73,0.522 2.081,1.313 0.112,0.285 0.187,0.571 0.187,0.863 v 5.45 C 2.255,-0.968 1.267,0 0,0" /></g><g
           transform="translate(560.0996,292.8994)"
           id="g168"><path
             id="path170"
             style="fill:#0060a3;fill-opacity:1;fill-rule:nonzero;stroke:none"
             d="m 0,0 h -1.779 c -0.909,0 -1.74,-0.521 -2.078,-1.319 -0.109,-0.28 -0.158,-0.562 -0.158,-0.874 V -27.27 c 0,-1.238 0.972,-2.183 2.236,-2.183 h 1.766 c 0.919,0 1.73,0.509 2.081,1.319 0.112,0.277 0.187,0.559 0.187,0.864 V -2.187 C 2.255,-0.945 1.267,0 0,0" /></g><g
           transform="translate(621.438,283.3662)"
           id="g172"><path
             id="path174"
             style="fill:#0060a3;fill-opacity:1;fill-rule:nonzero;stroke:none"
             d="m 0,0 h -7.032 c -1.017,0 -2.035,0.404 -2.902,1.116 -0.827,0.699 -1.3,1.625 -1.339,2.59 -0.046,1.087 0.377,2.105 1.136,2.893 0.758,0.767 1.835,1.208 2.991,1.208 H 5.459 c 1.225,0 2.154,0.945 2.154,2.17 v 1.746 c 0,0.87 -0.509,1.668 -1.294,2.006 -0.272,0.111 -0.545,0.167 -0.86,0.167 H -6.88 c -2.85,0 -5.614,-1.099 -7.662,-3.027 -2.01,-2.005 -3.057,-4.458 -2.988,-7.13 0.092,-2.676 1.182,-5.144 3.158,-6.956 2.013,-1.851 4.58,-2.876 7.226,-2.876 h 7.264 c 1.044,0 2.094,-0.381 2.905,-1.047 0.814,-0.715 1.29,-1.629 1.333,-2.6 0.053,-1.09 -0.354,-2.094 -1.139,-2.885 -0.741,-0.788 -1.858,-1.222 -3.046,-1.222 l -14.192,0.003 c -1.191,0 -2.127,-0.945 -2.127,-2.156 v -1.747 c 0,-0.876 0.489,-1.67 1.287,-2.009 0.286,-0.128 0.548,-0.164 0.84,-0.164 H 0.171 c 2.725,0 5.328,1.001 7.33,2.847 1.944,1.838 3.05,4.313 3.116,6.91 C 10.699,-7.475 9.655,-5.02 7.603,-3 5.591,-1.097 2.83,0 0,0" /></g><g
           transform="translate(1237.7979,386.2461)"
           id="g176"><path
             id="path178"
             style="fill:#0060a3;fill-opacity:1;fill-rule:nonzero;stroke:none"
             d="m 0,0 h -38.997 v 12.246 c 0,0.997 -0.797,1.803 -1.761,1.803 h -6.281 c -0.98,0 -1.761,-0.806 -1.761,-1.803 V -8.241 c 0,-1.014 0.781,-1.828 1.761,-1.828 H 0 c 0.964,0 1.745,0.814 1.745,1.828 v 6.447 C 1.745,-0.797 0.964,0 0,0" /></g><g
           transform="translate(1214.8682,409.5918)"
           id="g180"><path
             id="path182"
             style="fill:#0060a3;fill-opacity:1;fill-rule:nonzero;stroke:none"
             d="M 0,0 V -6.441 C 0,-7.445 0.765,-8.259 1.729,-8.259 H 13.94 v -7.526 c 0,-0.997 0.782,-1.812 1.762,-1.812 h 6.28 c 0.981,0 1.761,0.815 1.761,1.812 v 69.404 c 0,0.997 -0.78,1.811 -1.761,1.811 h -6.28 c -0.98,0 -1.762,-0.814 -1.762,-1.811 V 1.812 H 1.729 C 0.765,1.812 0,0.997 0,0" /></g><g
           transform="translate(1188.998,408.3252)"
           id="g184"><path
             id="path186"
             style="fill:#0060a3;fill-opacity:1;fill-rule:nonzero;stroke:none"
             d="m 0,0 c 0,-1.005 0.781,-1.811 1.761,-1.811 h 6.281 c 0.964,0 1.761,0.806 1.761,1.811 v 8.757 h 24.109 c 0.964,0 1.762,0.831 1.762,1.827 v 6.431 c 0,1.005 -0.798,1.811 -1.762,1.811 h -52.949 c -0.964,0 -1.763,-0.806 -1.763,-1.811 v -6.431 c 0,-0.996 0.799,-1.827 1.763,-1.827 H 0 Z" /></g><g
           transform="translate(1196.6074,458.8721)"
           id="g188"><path
             id="path190"
             style="fill:#0060a3;fill-opacity:1;fill-rule:nonzero;stroke:none"
             d="m 0,0 c 6.862,0 11.814,-3.938 11.814,-9.337 0,-5.392 -4.952,-9.322 -11.814,-9.322 -6.879,0 -11.83,3.93 -11.83,9.322 C -11.83,-3.938 -6.879,0 0,0 m 0,-28.728 c 12.329,0 21.65,8.341 21.65,19.391 0,11.066 -9.321,19.406 -21.65,19.406 -12.346,0 -21.65,-8.34 -21.65,-19.406 0,-11.05 9.304,-19.391 21.65,-19.391" /></g><g
           transform="translate(615.8716,453.0981)"
           id="g192"><path
             id="path194"
             style="fill:#0060a3;fill-opacity:1;fill-rule:nonzero;stroke:none"
             d="m 0,0 h 40.523 c -0.502,-5.045 -1.627,-12.441 -3.696,-17.911 -0.349,-0.922 0.05,-1.945 0.964,-2.327 l 5.343,-2.571 c 0.45,-0.183 1.146,-0.082 1.329,0 0.449,0.184 0.798,0.549 0.98,0.997 3.629,9.368 4.913,22.723 4.964,28.001 v 2.736 c 0,0.632 -0.512,1.145 -1.145,1.145 L 0,10.069 c -0.98,0 -1.762,-0.814 -1.762,-1.802 V 1.794 C -1.762,0.806 -0.98,0 0,0" /></g><g
           transform="translate(847.9541,439.585)"
           id="g196"><path
             id="path198"
             style="fill:#0060a3;fill-opacity:1;fill-rule:nonzero;stroke:none"
             d="m 0,0 h -12.894 v 23.627 c 0,0.997 -0.781,1.811 -1.728,1.811 h -6.315 c -0.962,0 -1.76,-0.814 -1.76,-1.811 v -79.988 c 0,-0.981 0.798,-1.811 1.76,-1.811 h 6.315 c 0.947,0 1.728,0.83 1.728,1.811 v 46.292 H 0 c 0.98,0 1.761,0.797 1.761,1.81 v 6.447 C 1.761,-0.815 0.98,0 0,0" /></g><g
           transform="translate(803.3574,451.0332)"
           id="g200"><path
             id="path202"
             style="fill:#0060a3;fill-opacity:1;fill-rule:nonzero;stroke:none"
             d="m 0,0 h 11.082 c 0.964,0 1.763,0.806 1.763,1.81 v 6.448 c 0,1.005 -0.799,1.827 -1.763,1.827 h -40.109 c -0.981,0 -1.762,-0.822 -1.762,-1.827 V 1.81 c 0,-1.004 0.781,-1.81 1.762,-1.81 h 12.494 l -15.403,-41.424 c -0.149,-0.448 -0.149,-0.947 0.034,-1.379 0.199,-0.457 0.565,-0.797 0.997,-0.98 l 5.898,-2.293 c 0.416,-0.149 0.898,-0.149 1.313,0.033 0.431,0.2 0.78,0.573 0.947,1.014 L -8.309,-6.182 5.101,-45.96 c 0.25,-0.714 0.914,-1.196 1.662,-1.196 0.182,0 0.382,0.033 0.582,0.091 l 5.964,2.102 c 0.416,0.158 0.781,0.499 0.997,0.914 0.215,0.449 0.233,0.946 0.084,1.404 z" /></g><g
           transform="translate(759.834,386.2476)"
           id="g204"><path
             id="path206"
             style="fill:#0060a3;fill-opacity:1;fill-rule:nonzero;stroke:none"
             d="m 0,0 h -37.883 v 20.018 c 0,0.997 -0.797,1.794 -1.761,1.794 h -6.281 c -0.963,0 -1.761,-0.797 -1.761,-1.794 V -8.241 c 0,-1.014 0.798,-1.828 1.761,-1.828 H 0 c 0.964,0 1.761,0.814 1.761,1.828 v 6.447 C 1.761,-0.797 0.964,0 0,0" /></g><g
           transform="translate(738.0166,435.7856)"
           id="g208"><path
             id="path210"
             style="fill:#0060a3;fill-opacity:1;fill-rule:nonzero;stroke:none"
             d="m 0,0 h 12.778 v -32.756 c 0,-0.988 0.797,-1.811 1.761,-1.811 h 6.315 c 0.963,0 1.727,0.823 1.727,1.811 v 60.182 c 0,0.997 -0.764,1.812 -1.727,1.812 h -6.315 c -0.964,0 -1.761,-0.815 -1.761,-1.812 V 10.078 H 0 c -0.963,0 -1.743,-0.806 -1.743,-1.819 V 1.829 C -1.743,0.823 -0.963,0 0,0" /></g><g
           transform="translate(726.293,417.126)"
           id="g212"><path
             id="path214"
             style="fill:#0060a3;fill-opacity:1;fill-rule:nonzero;stroke:none"
             d="m 0,0 c 0.216,-0.432 0.549,-0.772 0.997,-0.947 0.432,-0.15 0.931,-0.141 1.329,0.058 L 8.059,1.794 C 8.491,1.994 8.84,2.359 9.006,2.808 9.155,3.281 9.122,3.755 8.939,4.187 L -4.324,33.907 H 5.694 c 0.982,0 1.763,0.806 1.763,1.81 v 6.448 c 0,1.005 -0.781,1.827 -1.763,1.827 h -38.315 c -0.981,0 -1.778,-0.822 -1.778,-1.827 v -6.448 c 0,-1.004 0.797,-1.81 1.778,-1.81 h 10.335 L -36.16,2.592 c -0.183,-0.441 -0.198,-0.938 -0.033,-1.404 0.166,-0.449 0.481,-0.798 0.914,-1.014 l 5.733,-2.658 c 0.232,-0.116 0.464,-0.166 0.731,-0.166 0.681,0 1.312,0.415 1.594,1.063 l 13.941,31.422 z" /></g><g
           transform="translate(1074.8906,386.2476)"
           id="g216"><path
             id="path218"
             style="fill:#0060a3;fill-opacity:1;fill-rule:nonzero;stroke:none"
             d="m 0,0 h -38.951 v 20.019 c 0,0.997 -0.797,1.793 -1.761,1.793 h -6.298 c -0.964,0 -1.761,-0.796 -1.761,-1.793 v -28.26 c 0,-1.014 0.797,-1.828 1.761,-1.828 H 0 c 0.964,0 1.761,0.814 1.761,1.828 v 6.447 C 1.761,-0.797 0.964,0 0,0" /></g><g
           transform="translate(1096.4609,453.1758)"
           id="g220"><path
             id="path222"
             style="fill:#0060a3;fill-opacity:1;fill-rule:nonzero;stroke:none"
             d="m 0,0 h 42.363 c -0.323,-7.258 -1.191,-17.307 -3.525,-23.478 -0.35,-0.922 0.05,-1.944 0.964,-2.327 l 5.799,-2.526 c 0.199,-0.082 0.431,-0.141 0.665,-0.141 0.249,0 0.481,0.059 0.664,0.141 0.448,0.184 0.798,0.549 0.98,0.998 4.886,12.612 4.447,35.4 4.447,35.633 -0.033,0.98 -0.831,1.769 -1.761,1.769 L 0,10.069 c -0.98,0 -1.762,-0.814 -1.762,-1.802 V 1.794 C -1.762,0.805 -0.98,0 0,0" /></g><g
           transform="translate(584.6401,386.2461)"
           id="g224"><path
             id="path226"
             style="fill:#0060a3;fill-opacity:1;fill-rule:nonzero;stroke:none"
             d="m 0,0 h -38.993 v 20.011 c 0,0.997 -0.797,1.803 -1.761,1.803 h -6.279 c -0.98,0 -1.761,-0.806 -1.761,-1.803 V -8.241 c 0,-1.014 0.781,-1.828 1.761,-1.828 H 0 c 0.964,0 1.745,0.814 1.745,1.828 v 6.447 C 1.745,-0.797 0.964,0 0,0" /></g><g
           transform="translate(596.9414,446.3618)"
           id="g228"><path
             id="path230"
             style="fill:#0060a3;fill-opacity:1;fill-rule:nonzero;stroke:none"
             d="m 0,0 h -11.479 v 16.85 c 0,0.997 -0.782,1.811 -1.762,1.811 h -6.28 c -0.98,0 -1.762,-0.814 -1.762,-1.811 v -60.181 c 0,-0.997 0.782,-1.811 1.762,-1.811 h 6.28 c 0.98,0 1.762,0.814 1.762,1.811 v 33.245 H 0 c 0.964,0 1.728,0.815 1.728,1.819 v 6.455 C 1.728,-0.814 0.964,0 0,0" /></g><g
           transform="translate(942.9424,432.7671)"
           id="g232"><path
             id="path234"
             style="fill:#0060a3;fill-opacity:1;fill-rule:nonzero;stroke:none"
             d="M 0,0 C 0.466,-0.354 1.123,-0.296 1.524,0.13 L 22.898,22.926 C 22.899,22.926 44.273,0.13 44.273,0.13 44.675,-0.296 45.332,-0.354 45.798,0 l 6.12,4.467 c 0.257,0.199 0.418,0.495 0.443,0.817 0.026,0.323 -0.087,0.641 -0.309,0.876 L 26.905,32.998 c -0.337,0.358 -0.806,0.562 -1.299,0.562 H 20.19 c -0.492,0 -0.961,-0.204 -1.297,-0.562 L -6.254,6.16 C -6.477,5.925 -6.589,5.607 -6.563,5.284 -6.538,4.962 -6.377,4.666 -6.12,4.467 Z" /></g><g
           transform="translate(1018.5762,440.7471)"
           id="g236"><path
             id="path238"
             style="fill:#0060a3;fill-opacity:1;fill-rule:nonzero;stroke:none"
             d="m 0,0 c 0,6.995 5.434,12.678 12.129,12.678 6.681,0 12.13,-5.683 12.13,-12.678 0,-7.012 -5.449,-12.695 -12.13,-12.695 C 5.434,-12.695 0,-7.012 0,0 m 33.896,2.924 h 13.46 v -6.63 H 33.78 c 0.199,1.23 0.299,2.476 0.299,3.706 0,0.947 -0.049,1.936 -0.183,2.924 m -4.32,-16.716 h 17.78 v -23.926 c 0,-0.989 0.797,-1.812 1.761,-1.812 h 6.297 c 0.981,0 1.762,0.823 1.762,1.812 v 60.183 c 0,0.997 -0.781,1.811 -1.762,1.811 h -6.297 c -0.964,0 -1.761,-0.814 -1.761,-1.811 V 13.002 H 30.125 C 26.004,19.125 19.291,22.756 12.129,22.756 0.033,22.756 -9.837,12.537 -9.837,0 c 0,-12.562 9.87,-22.781 21.966,-22.781 6.78,0 13.293,3.357 17.447,8.989" /></g><g
           transform="translate(531.1123,434.4883)"
           id="g240"><path
             id="path242"
             style="fill:#0060a3;fill-opacity:1;fill-rule:nonzero;stroke:none"
             d="m 0,0 c 0,5.708 5.317,10.346 11.871,10.346 6.537,0 11.871,-4.638 11.871,-10.346 0,-5.723 -5.334,-10.361 -11.871,-10.361 C 5.317,-10.361 0,-5.723 0,0 m 29.103,-12.35 c 2.782,3.43 4.437,7.711 4.437,12.35 0,4.336 -1.452,8.363 -3.921,11.671 -0.397,0.536 -0.821,1.048 -1.265,1.539 h 5.581 c 0.997,0 1.811,0.764 1.811,1.728 v 6.582 c 0,0.963 -0.814,1.761 -1.811,1.761 H 16.801 v 9.034 c 0,0.998 -0.781,1.811 -1.761,1.811 H 8.76 c -0.981,0 -1.762,-0.813 -1.762,-1.811 v -9.034 h -17.149 c -0.988,0 -1.811,-0.798 -1.811,-1.761 v -6.582 c 0,-0.964 0.823,-1.728 1.811,-1.728 H -4.53 C -7.777,9.653 -9.756,5.044 -9.756,0 c 0,-11.239 9.717,-20.383 21.627,-20.383 6.675,0 13.142,2.993 17.232,8.033" /></g><g
           transform="translate(916.1416,465.0234)"
           id="g244"><path
             id="path246"
             style="fill:#0060a3;fill-opacity:1;fill-rule:nonzero;stroke:none"
             d="m 0,0 h -6.314 c -0.963,0 -1.761,-0.814 -1.761,-1.812 v -79.987 c 0,-0.981 0.798,-1.811 1.761,-1.811 H 0 c 0.947,0 1.729,0.83 1.729,1.811 V -1.812 C 1.729,-0.814 0.947,0 0,0" /></g><g
           transform="translate(893.2676,461.1182)"
           id="g248"><path
             id="path250"
             style="fill:#0060a3;fill-opacity:1;fill-rule:nonzero;stroke:none"
             d="m 0,0 h -37.522 c -0.981,0 -1.762,-0.814 -1.762,-1.803 v -6.464 c 0,-0.988 0.781,-1.803 1.762,-1.803 h 29.495 c 0.013,-22.458 -20.475,-50.343 -20.475,-50.343 -0.493,-1.086 0.05,-1.944 0.964,-2.326 l 5.434,-2.367 c 0,0 1.306,-0.897 2.854,1.06 2.143,2.71 21.012,28.432 21.012,57.471 v 4.772 C 1.762,-0.814 0.98,0 0,0" /></g><g
           transform="translate(678.1016,426.1226)"
           id="g252"><path
             id="path254"
             style="fill:#0060a3;fill-opacity:1;fill-rule:nonzero;stroke:none"
             d="m 0,0 h -75.719 c -0.985,0 -1.782,-0.798 -1.782,-1.782 v -6.506 c 0,-0.984 0.797,-1.781 1.782,-1.781 h 32.459 v -8.158 h -18.953 c -0.98,0 -1.778,-0.814 -1.778,-1.828 v -6.447 c 0,-0.997 0.798,-1.794 1.778,-1.794 h 40.586 V -48.15 c 0,-0.997 0.814,-1.794 1.776,-1.794 h 6.266 c 0.963,0 1.76,0.797 1.76,1.794 v 28.095 c 0,1.014 -0.797,1.828 -1.76,1.828 h -19.864 v 8.158 H 0 c 0.984,0 1.782,0.797 1.782,1.781 v 6.506 C 1.782,-0.798 0.984,0 0,0" /></g><g
           transform="translate(1157.7158,417.1875)"
           id="g256"><path
             id="path258"
             style="fill:#0060a3;fill-opacity:1;fill-rule:nonzero;stroke:none"
             d="m 0,0 h -71.107 c -0.984,0 -1.782,-0.798 -1.782,-1.782 v -6.506 c 0,-0.983 0.798,-1.781 1.782,-1.781 h 30.143 v -26.603 c 0,-0.98 0.781,-1.795 1.745,-1.795 h 6.281 c 0.963,0 1.777,0.815 1.777,1.795 v 26.603 H 0 c 0.984,0 1.782,0.798 1.782,1.781 v 6.506 C 1.782,-0.798 0.984,0 0,0" /></g><g
           transform="translate(940.7852,377.9473)"
           id="g260"><path
             id="path262"
             style="fill:#0060a3;fill-opacity:1;fill-rule:nonzero;stroke:none"
             d="m 0,0 c 0.033,-0.979 0.831,-1.77 1.762,-1.77 h 48.13 c 0.98,0 1.761,0.815 1.761,1.803 v 5.444 c 0,0.989 -0.781,1.794 -1.761,1.794 H 9.82 v 4.63 h 38.531 c 0.897,0 1.597,0.692 1.714,1.565 l 0.047,-0.036 v 19.057 c -0.033,0.98 -0.831,1.77 -1.761,1.77 H 29.949 v 5.699 h 30.395 c 0.984,0 1.782,0.798 1.782,1.782 v 6.506 c 0,0.984 -0.798,1.782 -1.782,1.782 h -70.575 c -0.985,0 -1.783,-0.798 -1.783,-1.782 v -6.506 c 0,-0.984 0.798,-1.782 1.783,-1.782 H 20.146 V 34.257 H 1.762 C 0.781,34.257 0,33.443 0,32.454 V 27.01 C 0,26.022 0.781,25.216 1.762,25.216 H 40.538 V 20.942 H 1.762 C 0.781,20.942 0,20.128 0,19.139 Z" /></g></g></g></g></svg>